<svg width="129" height="45" viewBox="0 0 129 45" fill="none" xmlns="http://www.w3.org/2000/svg">
<g clip-path="url(#clip0_1_2)">
<path d="M106.5 0H22.5C10.0736 0 0 10.0736 0 22.5C0 34.9264 10.0736 45 22.5 45H106.5C118.926 45 129 34.9264 129 22.5C129 10.0736 118.926 0 106.5 0Z" fill="#FAFAFA"/>
<path d="M20.5 41.5C30.9934 41.5 39.5 32.9934 39.5 22.5C39.5 12.0066 30.9934 3.5 20.5 3.5C10.0066 3.5 1.5 12.0066 1.5 22.5C1.5 32.9934 10.0066 41.5 20.5 41.5Z" fill="#D5E14F" stroke="#2D5BE3" stroke-width="3"/>
<path d="M29.7106 30.6382V16.9637H11.2894V30.6382L11 33H11.2894H29.7106H30L29.7106 30.6382Z" fill="#2D5BE3"/>
<path d="M20.5 22L21.2858 24.4184H23.8287L21.7714 25.9131L22.5572 28.3316L20.5 26.8369L18.4428 28.3316L19.2286 25.9131L17.1713 24.4184H19.7142L20.5 22Z" fill="#FFE600"/>
<path d="M25.4452 16.5861H23.8457V15.8087C23.8457 14.017 22.3452 12.5548 20.5019 12.5548C18.6587 12.5548 17.1544 14.0133 17.1544 15.8087V16.5861H15.5548V15.8087C15.551 13.1582 17.7713 11 20.4981 11C23.2249 11 25.4452 13.1582 25.4452 15.8087V16.5861Z" fill="#2D5BE3"/>
<path d="M16.8953 18.3444C16.8953 18.6369 16.6516 18.8701 16.3545 18.8701C16.0536 18.8701 15.8137 18.6332 15.8137 18.3444C15.8137 18.052 16.0575 17.8188 16.3545 17.8188C16.6516 17.8151 16.8953 18.052 16.8953 18.3444Z" fill="white"/>
<path d="M25.1861 18.3444C25.1861 18.6369 24.9424 18.8701 24.6453 18.8701C24.3445 18.8701 24.1045 18.6332 24.1045 18.3444C24.1045 18.052 24.3483 17.8188 24.6453 17.8188C24.9462 17.8151 25.1861 18.052 25.1861 18.3444Z" fill="white"/>
<path d="M53.1162 14L50.7188 7.68165H50.6797C50.6927 7.81511 50.7041 7.97787 50.7139 8.16993C50.7236 8.36199 50.7318 8.57195 50.7383 8.79981C50.7448 9.02442 50.748 9.25391 50.748 9.48829V14H49.9766V6.86134H51.207L53.4678 12.7988H53.502L55.7969 6.86134H57.0176V14H56.1973V9.4297C56.1973 9.21811 56.2005 9.00652 56.207 8.79493C56.2135 8.58009 56.2217 8.37826 56.2314 8.18946C56.2412 7.9974 56.251 7.83139 56.2607 7.69141H56.2217L53.7949 14H53.1162ZM60.8506 8.56055C61.4886 8.56055 61.9622 8.70378 62.2715 8.99024C62.5807 9.2767 62.7354 9.73406 62.7354 10.3623V14H62.1445L61.9883 13.209H61.9492C61.7995 13.4043 61.6432 13.5687 61.4805 13.7022C61.3177 13.8324 61.1289 13.9316 60.9141 14C60.7025 14.0651 60.4421 14.0977 60.1328 14.0977C59.8073 14.0977 59.5176 14.0407 59.2637 13.9268C59.013 13.8128 58.8145 13.6403 58.668 13.4092C58.5247 13.1781 58.4531 12.8851 58.4531 12.5303C58.4531 11.9964 58.6647 11.5863 59.0879 11.2998C59.5111 11.0134 60.1556 10.8571 61.0215 10.8311L61.9443 10.792V10.4649C61.9443 10.0026 61.8451 9.67872 61.6465 9.49317C61.4479 9.30762 61.168 9.21485 60.8066 9.21485C60.5267 9.21485 60.2598 9.25554 60.0059 9.33692C59.752 9.4183 59.5111 9.51433 59.2832 9.62501L59.0342 9.00977C59.2751 8.88608 59.5518 8.78028 59.8643 8.69239C60.1768 8.6045 60.5055 8.56055 60.8506 8.56055ZM61.9346 11.3633L61.1191 11.3975C60.4518 11.4235 59.9814 11.5326 59.708 11.7246C59.4346 11.9167 59.2979 12.1885 59.2979 12.54C59.2979 12.846 59.3906 13.0723 59.5762 13.2188C59.7617 13.3652 60.0075 13.4385 60.3135 13.4385C60.7887 13.4385 61.1777 13.3066 61.4805 13.043C61.7832 12.7793 61.9346 12.3838 61.9346 11.8565V11.3633ZM67.8672 12.5352C67.8672 12.877 67.7809 13.165 67.6084 13.3994C67.4391 13.6305 67.195 13.8047 66.876 13.9219C66.5602 14.0391 66.1826 14.0977 65.7432 14.0977C65.3688 14.0977 65.0449 14.0684 64.7715 14.0098C64.498 13.9512 64.2588 13.8682 64.0537 13.7607V13.0137C64.2718 13.1211 64.5322 13.2188 64.835 13.3066C65.1377 13.3945 65.4469 13.4385 65.7627 13.4385C66.2249 13.4385 66.5602 13.3636 66.7686 13.2139C66.9769 13.0641 67.0811 12.8607 67.0811 12.6035C67.0811 12.457 67.0387 12.3285 66.9541 12.2178C66.8727 12.1038 66.7344 11.9948 66.5391 11.8906C66.3438 11.7832 66.0736 11.666 65.7285 11.5391C65.3867 11.4089 65.0905 11.2803 64.8398 11.1533C64.5924 11.0231 64.4004 10.8652 64.2637 10.6797C64.1302 10.4941 64.0635 10.2533 64.0635 9.95704C64.0635 9.50456 64.2458 9.15789 64.6104 8.917C64.9782 8.67286 65.46 8.55079 66.0557 8.55079C66.3779 8.55079 66.679 8.58334 66.959 8.64845C67.2422 8.71029 67.5059 8.79493 67.75 8.90235L67.4766 9.55177C67.2552 9.45736 67.0192 9.37761 66.7686 9.31251C66.5179 9.2474 66.2624 9.21485 66.002 9.21485C65.6276 9.21485 65.3395 9.2767 65.1377 9.4004C64.9391 9.5241 64.8398 9.69337 64.8398 9.90821C64.8398 10.0742 64.8854 10.2109 64.9766 10.3184C65.071 10.4258 65.2207 10.5267 65.4258 10.6211C65.6309 10.7155 65.901 10.8262 66.2363 10.9531C66.5716 11.0768 66.8613 11.2054 67.1055 11.3389C67.3496 11.4691 67.5368 11.6286 67.667 11.8174C67.8005 12.0029 67.8672 12.2422 67.8672 12.5352ZM73.6729 14.0977C72.9958 14.0977 72.4587 13.8665 72.0615 13.4043C71.6676 12.9421 71.4707 12.2552 71.4707 11.3438C71.4707 10.4225 71.6725 9.72755 72.0762 9.2588C72.4798 8.78679 73.0169 8.55079 73.6875 8.55079C73.9707 8.55079 74.2181 8.58822 74.4297 8.66309C74.6413 8.73796 74.8236 8.83887 74.9766 8.96583C75.1296 9.08953 75.2581 9.23113 75.3623 9.39063H75.4209C75.4079 9.28972 75.3949 9.15137 75.3818 8.97559C75.3688 8.79981 75.3623 8.65658 75.3623 8.54591V6.40235H76.1729V14H75.5186L75.3965 13.2383H75.3623C75.2614 13.3978 75.1328 13.5427 74.9766 13.6729C74.8236 13.8031 74.6396 13.9072 74.4248 13.9854C74.2132 14.0602 73.9626 14.0977 73.6729 14.0977ZM73.7998 13.4238C74.3727 13.4238 74.778 13.2611 75.0156 12.9356C75.2533 12.61 75.3721 12.1266 75.3721 11.4854V11.3389C75.3721 10.6585 75.2581 10.1361 75.0303 9.77149C74.8057 9.40691 74.3955 9.22462 73.7998 9.22462C73.3018 9.22462 72.929 9.41667 72.6816 9.80079C72.4342 10.1816 72.3105 10.7025 72.3105 11.3633C72.3105 12.0208 72.4326 12.5287 72.6768 12.8867C72.9242 13.2448 73.2985 13.4238 73.7998 13.4238ZM79.9521 8.55079C80.4079 8.55079 80.7985 8.6517 81.124 8.85352C81.4495 9.05535 81.6986 9.33855 81.8711 9.70313C82.0436 10.0645 82.1299 10.4876 82.1299 10.9727V11.4756H78.4336C78.4434 12.1038 78.5996 12.5824 78.9023 12.9111C79.2051 13.2399 79.6315 13.4043 80.1816 13.4043C80.5202 13.4043 80.8197 13.3734 81.0801 13.3115C81.3405 13.2497 81.6107 13.1585 81.8906 13.0381V13.751C81.6204 13.8714 81.3519 13.9593 81.085 14.0147C80.8213 14.07 80.5088 14.0977 80.1475 14.0977C79.6331 14.0977 79.1839 13.9935 78.7998 13.7852C78.4189 13.5736 78.1227 13.2643 77.9111 12.8574C77.6995 12.4505 77.5938 11.9525 77.5938 11.3633C77.5938 10.7871 77.6898 10.2891 77.8818 9.86915C78.0771 9.44597 78.3506 9.12045 78.7021 8.89259C79.057 8.66472 79.4736 8.55079 79.9521 8.55079ZM79.9424 9.21485C79.5094 9.21485 79.1644 9.35645 78.9072 9.63966C78.6501 9.92286 78.4971 10.3184 78.4482 10.8262H81.2803C81.277 10.5072 81.2266 10.2272 81.1289 9.98634C81.0345 9.7422 80.8896 9.55339 80.6943 9.41993C80.499 9.28321 80.2484 9.21485 79.9424 9.21485ZM90.5234 8.64845V14H89.8594L89.7422 13.2481H89.6982C89.5876 13.4336 89.4443 13.5899 89.2686 13.7168C89.0928 13.8438 88.8942 13.9382 88.6729 14C88.4548 14.0651 88.222 14.0977 87.9746 14.0977C87.5514 14.0977 87.1966 14.0293 86.9102 13.8926C86.6237 13.7559 86.4072 13.5443 86.2607 13.2578C86.1175 12.9714 86.0459 12.6035 86.0459 12.1543V8.64845H86.8662V12.0957C86.8662 12.5417 86.9671 12.8753 87.1689 13.0967C87.3708 13.3148 87.6784 13.4238 88.0918 13.4238C88.4889 13.4238 88.8047 13.349 89.0391 13.1992C89.2767 13.0495 89.4476 12.8298 89.5518 12.54C89.6559 12.2471 89.708 11.889 89.708 11.4658V8.64845H90.5234ZM94.7715 8.55079C95.4062 8.55079 95.8864 8.70704 96.2119 9.01954C96.5374 9.32878 96.7002 9.82683 96.7002 10.5137V14H95.8994V10.5674C95.8994 10.1214 95.7969 9.78777 95.5918 9.56641C95.39 9.34506 95.0791 9.23438 94.6592 9.23438C94.0667 9.23438 93.6501 9.40203 93.4092 9.73731C93.1683 10.0726 93.0479 10.5593 93.0479 11.1973V14H92.2373V8.64845H92.8916L93.0137 9.41993H93.0576C93.1715 9.23113 93.3164 9.07325 93.4922 8.9463C93.668 8.81609 93.8649 8.71843 94.083 8.65333C94.3011 8.58497 94.5306 8.55079 94.7715 8.55079ZM52.5107 26H51.7197V20.9414C51.7197 20.7494 51.7197 20.585 51.7197 20.4482C51.723 20.3083 51.7262 20.1813 51.7295 20.0674C51.736 19.9502 51.7441 19.8314 51.7539 19.7109C51.653 19.8151 51.5586 19.9046 51.4707 19.9795C51.3828 20.0511 51.2738 20.1406 51.1436 20.2481L50.3281 20.9024L49.9033 20.3506L51.8369 18.8613H52.5107V26ZM55.4551 25.4922C55.4551 25.2643 55.5104 25.1032 55.6211 25.0088C55.7318 24.9111 55.8669 24.8623 56.0264 24.8623C56.1924 24.8623 56.3324 24.9111 56.4463 25.0088C56.5602 25.1032 56.6172 25.2643 56.6172 25.4922C56.6172 25.7168 56.5602 25.8812 56.4463 25.9854C56.3324 26.0863 56.1924 26.1367 56.0264 26.1367C55.8669 26.1367 55.7318 26.0863 55.6211 25.9854C55.5104 25.8812 55.4551 25.7168 55.4551 25.4922ZM62.5596 22.4209C62.5596 23.0003 62.5156 23.5179 62.4277 23.9736C62.3398 24.4294 62.2015 24.8151 62.0127 25.1309C61.8239 25.4466 61.5798 25.6875 61.2803 25.8535C60.9808 26.0163 60.6211 26.0977 60.2012 26.0977C59.6706 26.0977 59.2311 25.9528 58.8828 25.6631C58.5378 25.3734 58.279 24.9551 58.1064 24.4082C57.9372 23.8581 57.8525 23.1956 57.8525 22.4209C57.8525 21.6592 57.929 21.0049 58.082 20.458C58.2383 19.9079 58.4889 19.4863 58.834 19.1934C59.179 18.8971 59.6348 18.749 60.2012 18.749C60.7383 18.749 61.181 18.8955 61.5293 19.1885C61.8776 19.4782 62.1364 19.8981 62.3057 20.4482C62.4749 20.9951 62.5596 21.6527 62.5596 22.4209ZM58.668 22.4209C58.668 23.085 58.7184 23.6384 58.8193 24.0811C58.9202 24.5238 59.083 24.8558 59.3076 25.0772C59.5355 25.2953 59.8333 25.4043 60.2012 25.4043C60.569 25.4043 60.8652 25.2953 61.0898 25.0772C61.3177 24.8591 61.4821 24.5287 61.583 24.0859C61.6872 23.6432 61.7393 23.0882 61.7393 22.4209C61.7393 21.7666 61.6888 21.2197 61.5879 20.7803C61.487 20.3376 61.3242 20.0055 61.0996 19.7842C60.875 19.5596 60.5755 19.4473 60.2012 19.4473C59.8268 19.4473 59.5273 19.5596 59.3027 19.7842C59.0781 20.0055 58.9154 20.3376 58.8145 20.7803C58.7168 21.2197 58.668 21.7666 58.668 22.4209ZM68.2822 22.4209C68.2822 23.0003 68.2383 23.5179 68.1504 23.9736C68.0625 24.4294 67.9242 24.8151 67.7354 25.1309C67.5465 25.4466 67.3024 25.6875 67.0029 25.8535C66.7035 26.0163 66.3438 26.0977 65.9238 26.0977C65.3932 26.0977 64.9538 25.9528 64.6055 25.6631C64.2604 25.3734 64.0016 24.9551 63.8291 24.4082C63.6598 23.8581 63.5752 23.1956 63.5752 22.4209C63.5752 21.6592 63.6517 21.0049 63.8047 20.458C63.9609 19.9079 64.2116 19.4863 64.5566 19.1934C64.9017 18.8971 65.3574 18.749 65.9238 18.749C66.4609 18.749 66.9036 18.8955 67.252 19.1885C67.6003 19.4782 67.859 19.8981 68.0283 20.4482C68.1976 20.9951 68.2822 21.6527 68.2822 22.4209ZM64.3906 22.4209C64.3906 23.085 64.4411 23.6384 64.542 24.0811C64.6429 24.5238 64.8057 24.8558 65.0303 25.0772C65.2581 25.2953 65.556 25.4043 65.9238 25.4043C66.2917 25.4043 66.5879 25.2953 66.8125 25.0772C67.0404 24.8591 67.2048 24.5287 67.3057 24.0859C67.4098 23.6432 67.4619 23.0882 67.4619 22.4209C67.4619 21.7666 67.4115 21.2197 67.3105 20.7803C67.2096 20.3376 67.0469 20.0055 66.8223 19.7842C66.5977 19.5596 66.2982 19.4473 65.9238 19.4473C65.5495 19.4473 65.25 19.5596 65.0254 19.7842C64.8008 20.0055 64.638 20.3376 64.5371 20.7803C64.4395 21.2197 64.3906 21.7666 64.3906 22.4209ZM74.0049 22.4209C74.0049 23.0003 73.9609 23.5179 73.873 23.9736C73.7852 24.4294 73.6468 24.8151 73.458 25.1309C73.2692 25.4466 73.0251 25.6875 72.7256 25.8535C72.4261 26.0163 72.0664 26.0977 71.6465 26.0977C71.1159 26.0977 70.6764 25.9528 70.3281 25.6631C69.9831 25.3734 69.7243 24.9551 69.5518 24.4082C69.3825 23.8581 69.2979 23.1956 69.2979 22.4209C69.2979 21.6592 69.3743 21.0049 69.5273 20.458C69.6836 19.9079 69.9342 19.4863 70.2793 19.1934C70.6243 18.8971 71.0801 18.749 71.6465 18.749C72.1836 18.749 72.6263 18.8955 72.9746 19.1885C73.3229 19.4782 73.5817 19.8981 73.751 20.4482C73.9202 20.9951 74.0049 21.6527 74.0049 22.4209ZM70.1133 22.4209C70.1133 23.085 70.1637 23.6384 70.2646 24.0811C70.3656 24.5238 70.5283 24.8558 70.7529 25.0772C70.9808 25.2953 71.2786 25.4043 71.6465 25.4043C72.0143 25.4043 72.3105 25.2953 72.5352 25.0772C72.763 24.8591 72.9274 24.5287 73.0283 24.0859C73.1325 23.6432 73.1846 23.0882 73.1846 22.4209C73.1846 21.7666 73.1341 21.2197 73.0332 20.7803C72.9323 20.3376 72.7695 20.0055 72.5449 19.7842C72.3203 19.5596 72.0208 19.4473 71.6465 19.4473C71.2721 19.4473 70.9727 19.5596 70.748 19.7842C70.5234 20.0055 70.3607 20.3376 70.2598 20.7803C70.1621 21.2197 70.1133 21.7666 70.1133 22.4209ZM75.25 25.4922C75.25 25.2643 75.3053 25.1032 75.416 25.0088C75.5267 24.9111 75.6618 24.8623 75.8213 24.8623C75.9873 24.8623 76.1273 24.9111 76.2412 25.0088C76.3551 25.1032 76.4121 25.2643 76.4121 25.4922C76.4121 25.7168 76.3551 25.8812 76.2412 25.9854C76.1273 26.0863 75.9873 26.1367 75.8213 26.1367C75.6618 26.1367 75.5267 26.0863 75.416 25.9854C75.3053 25.8812 75.25 25.7168 75.25 25.4922ZM82.3545 22.4209C82.3545 23.0003 82.3105 23.5179 82.2227 23.9736C82.1348 24.4294 81.9964 24.8151 81.8076 25.1309C81.6188 25.4466 81.3747 25.6875 81.0752 25.8535C80.7757 26.0163 80.416 26.0977 79.9961 26.0977C79.4655 26.0977 79.026 25.9528 78.6777 25.6631C78.3327 25.3734 78.0739 24.9551 77.9014 24.4082C77.7321 23.8581 77.6475 23.1956 77.6475 22.4209C77.6475 21.6592 77.724 21.0049 77.877 20.458C78.0332 19.9079 78.2839 19.4863 78.6289 19.1934C78.974 18.8971 79.4297 18.749 79.9961 18.749C80.5332 18.749 80.9759 18.8955 81.3242 19.1885C81.6725 19.4782 81.9313 19.8981 82.1006 20.4482C82.2699 20.9951 82.3545 21.6527 82.3545 22.4209ZM78.4629 22.4209C78.4629 23.085 78.5133 23.6384 78.6143 24.0811C78.7152 24.5238 78.8779 24.8558 79.1025 25.0772C79.3304 25.2953 79.6283 25.4043 79.9961 25.4043C80.3639 25.4043 80.6602 25.2953 80.8848 25.0772C81.1126 24.8591 81.277 24.5287 81.3779 24.0859C81.4821 23.6432 81.5342 23.0882 81.5342 22.4209C81.5342 21.7666 81.4837 21.2197 81.3828 20.7803C81.2819 20.3376 81.1191 20.0055 80.8945 19.7842C80.6699 19.5596 80.3704 19.4473 79.9961 19.4473C79.6217 19.4473 79.3223 19.5596 79.0977 19.7842C78.873 20.0055 78.7103 20.3376 78.6094 20.7803C78.5117 21.2197 78.4629 21.7666 78.4629 22.4209ZM88.0771 22.4209C88.0771 23.0003 88.0332 23.5179 87.9453 23.9736C87.8574 24.4294 87.7191 24.8151 87.5303 25.1309C87.3415 25.4466 87.0973 25.6875 86.7979 25.8535C86.4984 26.0163 86.1387 26.0977 85.7188 26.0977C85.1882 26.0977 84.7487 25.9528 84.4004 25.6631C84.0553 25.3734 83.7965 24.9551 83.624 24.4082C83.4548 23.8581 83.3701 23.1956 83.3701 22.4209C83.3701 21.6592 83.4466 21.0049 83.5996 20.458C83.7559 19.9079 84.0065 19.4863 84.3516 19.1934C84.6966 18.8971 85.1523 18.749 85.7188 18.749C86.2559 18.749 86.6986 18.8955 87.0469 19.1885C87.3952 19.4782 87.654 19.8981 87.8232 20.4482C87.9925 20.9951 88.0771 21.6527 88.0771 22.4209ZM84.1855 22.4209C84.1855 23.085 84.236 23.6384 84.3369 24.0811C84.4378 24.5238 84.6006 24.8558 84.8252 25.0772C85.0531 25.2953 85.3509 25.4043 85.7188 25.4043C86.0866 25.4043 86.3828 25.2953 86.6074 25.0772C86.8353 24.8591 86.9997 24.5287 87.1006 24.0859C87.2048 23.6432 87.2568 23.0882 87.2568 22.4209C87.2568 21.7666 87.2064 21.2197 87.1055 20.7803C87.0046 20.3376 86.8418 20.0055 86.6172 19.7842C86.3926 19.5596 86.0931 19.4473 85.7188 19.4473C85.3444 19.4473 85.0449 19.5596 84.8203 19.7842C84.5957 20.0055 84.4329 20.3376 84.332 20.7803C84.2344 21.2197 84.1855 21.7666 84.1855 22.4209ZM93.7998 22.4209C93.7998 23.0003 93.7559 23.5179 93.668 23.9736C93.5801 24.4294 93.4417 24.8151 93.2529 25.1309C93.0641 25.4466 92.82 25.6875 92.5205 25.8535C92.221 26.0163 91.8613 26.0977 91.4414 26.0977C90.9108 26.0977 90.4714 25.9528 90.123 25.6631C89.778 25.3734 89.5192 24.9551 89.3467 24.4082C89.1774 23.8581 89.0928 23.1956 89.0928 22.4209C89.0928 21.6592 89.1693 21.0049 89.3223 20.458C89.4785 19.9079 89.7292 19.4863 90.0742 19.1934C90.4193 18.8971 90.875 18.749 91.4414 18.749C91.9785 18.749 92.4212 18.8955 92.7695 19.1885C93.1178 19.4782 93.3766 19.8981 93.5459 20.4482C93.7152 20.9951 93.7998 21.6527 93.7998 22.4209ZM89.9082 22.4209C89.9082 23.085 89.9587 23.6384 90.0596 24.0811C90.1605 24.5238 90.3232 24.8558 90.5479 25.0772C90.7757 25.2953 91.0736 25.4043 91.4414 25.4043C91.8092 25.4043 92.1055 25.2953 92.3301 25.0772C92.5579 24.8591 92.7223 24.5287 92.8232 24.0859C92.9274 23.6432 92.9795 23.0882 92.9795 22.4209C92.9795 21.7666 92.929 21.2197 92.8281 20.7803C92.7272 20.3376 92.5645 20.0055 92.3398 19.7842C92.1152 19.5596 91.8158 19.4473 91.4414 19.4473C91.0671 19.4473 90.7676 19.5596 90.543 19.7842C90.3184 20.0055 90.1556 20.3376 90.0547 20.7803C89.957 21.2197 89.9082 21.7666 89.9082 22.4209ZM99.6689 26.0977C98.9919 26.0977 98.4548 25.8665 98.0576 25.4043C97.6637 24.9421 97.4668 24.2552 97.4668 23.3438C97.4668 22.4225 97.6686 21.7275 98.0723 21.2588C98.4759 20.7868 99.013 20.5508 99.6836 20.5508C99.9668 20.5508 100.214 20.5882 100.426 20.6631C100.637 20.738 100.82 20.8389 100.973 20.9658C101.126 21.0895 101.254 21.2311 101.358 21.3906H101.417C101.404 21.2897 101.391 21.1514 101.378 20.9756C101.365 20.7998 101.358 20.6566 101.358 20.5459V18.4024H102.169V26H101.515L101.393 25.2383H101.358C101.257 25.3978 101.129 25.5427 100.973 25.6729C100.82 25.8031 100.636 25.9072 100.421 25.9854C100.209 26.0602 99.9587 26.0977 99.6689 26.0977ZM99.7959 25.4238C100.369 25.4238 100.774 25.2611 101.012 24.9356C101.249 24.61 101.368 24.1266 101.368 23.4854V23.3389C101.368 22.6585 101.254 22.1361 101.026 21.7715C100.802 21.4069 100.392 21.2246 99.7959 21.2246C99.2979 21.2246 98.9251 21.4167 98.6777 21.8008C98.4303 22.1816 98.3066 22.7025 98.3066 23.3633C98.3066 24.0208 98.4287 24.5287 98.6729 24.8867C98.9202 25.2448 99.2946 25.4238 99.7959 25.4238ZM105.948 20.5508C106.404 20.5508 106.795 20.6517 107.12 20.8535C107.446 21.0553 107.695 21.3385 107.867 21.7031C108.04 22.0645 108.126 22.4876 108.126 22.9727V23.4756H104.43C104.439 24.1038 104.596 24.5824 104.898 24.9111C105.201 25.2399 105.628 25.4043 106.178 25.4043C106.516 25.4043 106.816 25.3734 107.076 25.3115C107.337 25.2497 107.607 25.1585 107.887 25.0381V25.751C107.617 25.8714 107.348 25.9593 107.081 26.0147C106.817 26.07 106.505 26.0977 106.144 26.0977C105.629 26.0977 105.18 25.9935 104.796 25.7852C104.415 25.5736 104.119 25.2643 103.907 24.8574C103.696 24.4505 103.59 23.9525 103.59 23.3633C103.59 22.7871 103.686 22.2891 103.878 21.8691C104.073 21.446 104.347 21.1205 104.698 20.8926C105.053 20.6647 105.47 20.5508 105.948 20.5508ZM105.938 21.2149C105.506 21.2149 105.16 21.3565 104.903 21.6397C104.646 21.9229 104.493 22.3184 104.444 22.8262H107.276C107.273 22.5072 107.223 22.2272 107.125 21.9863C107.031 21.7422 106.886 21.5534 106.69 21.4199C106.495 21.2832 106.244 21.2149 105.938 21.2149ZM51.0312 38L49 32.6484H49.8691L51.0459 35.8857C51.1273 36.1071 51.2103 36.3512 51.2949 36.6182C51.3796 36.8851 51.4382 37.0999 51.4707 37.2627H51.5049C51.5439 37.0999 51.609 36.8851 51.7002 36.6182C51.7913 36.348 51.8743 36.1038 51.9492 35.8857L53.126 32.6484H53.9951L51.959 38H51.0312ZM56.915 32.5508C57.3708 32.5508 57.7614 32.6517 58.0869 32.8535C58.4124 33.0553 58.6615 33.3385 58.834 33.7031C59.0065 34.0645 59.0928 34.4876 59.0928 34.9727V35.4756H55.3965C55.4062 36.1038 55.5625 36.5824 55.8652 36.9111C56.168 37.2399 56.5944 37.4043 57.1445 37.4043C57.4831 37.4043 57.7826 37.3734 58.043 37.3115C58.3034 37.2497 58.5736 37.1585 58.8535 37.0381V37.751C58.5833 37.8714 58.3148 37.9593 58.0479 38.0147C57.7842 38.07 57.4717 38.0977 57.1104 38.0977C56.596 38.0977 56.1468 37.9935 55.7627 37.7852C55.3818 37.5736 55.0856 37.2643 54.874 36.8574C54.6624 36.4505 54.5566 35.9525 54.5566 35.3633C54.5566 34.7871 54.6527 34.2891 54.8447 33.8691C55.04 33.446 55.3135 33.1205 55.665 32.8926C56.0199 32.6647 56.4365 32.5508 56.915 32.5508ZM56.9053 33.2149C56.4723 33.2149 56.1273 33.3565 55.8701 33.6397C55.613 33.9229 55.46 34.3184 55.4111 34.8262H58.2432C58.2399 34.5072 58.1895 34.2272 58.0918 33.9863C57.9974 33.7422 57.8525 33.5534 57.6572 33.4199C57.4619 33.2832 57.2113 33.2149 56.9053 33.2149ZM63.0039 32.5508C63.6387 32.5508 64.1188 32.707 64.4443 33.0195C64.7699 33.3288 64.9326 33.8268 64.9326 34.5137V38H64.1318V34.5674C64.1318 34.1214 64.0293 33.7878 63.8242 33.5664C63.6224 33.3451 63.3115 33.2344 62.8916 33.2344C62.2992 33.2344 61.8825 33.402 61.6416 33.7373C61.4007 34.0726 61.2803 34.5593 61.2803 35.1973V38H60.4697V32.6484H61.124L61.2461 33.4199H61.29C61.404 33.2311 61.5488 33.0732 61.7246 32.9463C61.9004 32.8161 62.0973 32.7184 62.3154 32.6533C62.5335 32.585 62.763 32.5508 63.0039 32.5508ZM68.3311 37.4336C68.4645 37.4336 68.6012 37.4222 68.7412 37.3994C68.8812 37.3766 68.9951 37.349 69.083 37.3164V37.9463C68.9886 37.9886 68.8568 38.0244 68.6875 38.0537C68.5215 38.083 68.3587 38.0977 68.1992 38.0977C67.916 38.0977 67.6589 38.0488 67.4277 37.9512C67.1966 37.8503 67.0111 37.681 66.8711 37.4434C66.7344 37.2057 66.666 36.877 66.666 36.457V33.2832H65.9043V32.8877L66.6709 32.5703L66.9932 31.4082H67.4814V32.6484H69.0488V33.2832H67.4814V36.4326C67.4814 36.7679 67.5579 37.0186 67.7109 37.1846C67.8672 37.3506 68.0739 37.4336 68.3311 37.4336ZM72.1689 32.5606C72.807 32.5606 73.2806 32.7038 73.5898 32.9902C73.8991 33.2767 74.0537 33.7341 74.0537 34.3623V38H73.4629L73.3066 37.209H73.2676C73.1178 37.4043 72.9616 37.5687 72.7988 37.7022C72.6361 37.8324 72.4473 37.9316 72.2324 38C72.0208 38.0651 71.7604 38.0977 71.4512 38.0977C71.1257 38.0977 70.8359 38.0407 70.582 37.9268C70.3314 37.8128 70.1328 37.6403 69.9863 37.4092C69.8431 37.1781 69.7715 36.8851 69.7715 36.5303C69.7715 35.9964 69.9831 35.5863 70.4062 35.2998C70.8294 35.0134 71.474 34.8571 72.3398 34.8311L73.2627 34.792V34.4649C73.2627 34.0026 73.1634 33.6787 72.9648 33.4932C72.7663 33.3076 72.4863 33.2149 72.125 33.2149C71.8451 33.2149 71.5781 33.2555 71.3242 33.3369C71.0703 33.4183 70.8294 33.5143 70.6016 33.625L70.3525 33.0098C70.5934 32.8861 70.8701 32.7803 71.1826 32.6924C71.4951 32.6045 71.8239 32.5606 72.1689 32.5606ZM73.2529 35.3633L72.4375 35.3975C71.7702 35.4235 71.2998 35.5326 71.0264 35.7246C70.7529 35.9167 70.6162 36.1885 70.6162 36.54C70.6162 36.846 70.709 37.0723 70.8945 37.2188C71.0801 37.3652 71.3258 37.4385 71.6318 37.4385C72.1071 37.4385 72.4961 37.3066 72.7988 37.043C73.1016 36.7793 73.2529 36.3838 73.2529 35.8565V35.3633ZM79.1855 36.5352C79.1855 36.877 79.0993 37.165 78.9268 37.3994C78.7575 37.6305 78.5133 37.8047 78.1943 37.9219C77.8786 38.0391 77.501 38.0977 77.0615 38.0977C76.6872 38.0977 76.3633 38.0684 76.0898 38.0098C75.8164 37.9512 75.5771 37.8682 75.3721 37.7607V37.0137C75.5902 37.1211 75.8506 37.2188 76.1533 37.3066C76.4561 37.3945 76.7653 37.4385 77.0811 37.4385C77.5433 37.4385 77.8786 37.3636 78.0869 37.2139C78.2952 37.0641 78.3994 36.8607 78.3994 36.6035C78.3994 36.457 78.3571 36.3285 78.2725 36.2178C78.1911 36.1038 78.0527 35.9948 77.8574 35.8906C77.6621 35.7832 77.3919 35.666 77.0469 35.5391C76.7051 35.4089 76.4089 35.2803 76.1582 35.1533C75.9108 35.0231 75.7188 34.8652 75.582 34.6797C75.4486 34.4941 75.3818 34.2533 75.3818 33.957C75.3818 33.5046 75.5641 33.1579 75.9287 32.917C76.2965 32.6729 76.7783 32.5508 77.374 32.5508C77.6963 32.5508 77.9974 32.5833 78.2773 32.6484C78.5605 32.7103 78.8242 32.7949 79.0684 32.9024L78.7949 33.5518C78.5736 33.4574 78.3376 33.3776 78.0869 33.3125C77.8363 33.2474 77.5807 33.2149 77.3203 33.2149C76.946 33.2149 76.6579 33.2767 76.4561 33.4004C76.2575 33.5241 76.1582 33.6934 76.1582 33.9082C76.1582 34.0742 76.2038 34.2109 76.2949 34.3184C76.3893 34.4258 76.5391 34.5267 76.7441 34.6211C76.9492 34.7155 77.2194 34.8262 77.5547 34.9531C77.89 35.0768 78.1797 35.2054 78.4238 35.3389C78.668 35.4691 78.8551 35.6286 78.9854 35.8174C79.1188 36.0029 79.1855 36.2422 79.1855 36.5352ZM85.1475 32.5508C85.6032 32.5508 85.9938 32.6517 86.3193 32.8535C86.6449 33.0553 86.8939 33.3385 87.0664 33.7031C87.2389 34.0645 87.3252 34.4876 87.3252 34.9727V35.4756H83.6289C83.6387 36.1038 83.7949 36.5824 84.0977 36.9111C84.4004 37.2399 84.8268 37.4043 85.377 37.4043C85.7155 37.4043 86.015 37.3734 86.2754 37.3115C86.5358 37.2497 86.806 37.1585 87.0859 37.0381V37.751C86.8158 37.8714 86.5472 37.9593 86.2803 38.0147C86.0166 38.07 85.7041 38.0977 85.3428 38.0977C84.8285 38.0977 84.3792 37.9935 83.9951 37.7852C83.6143 37.5736 83.318 37.2643 83.1064 36.8574C82.8949 36.4505 82.7891 35.9525 82.7891 35.3633C82.7891 34.7871 82.8851 34.2891 83.0771 33.8691C83.2725 33.446 83.5459 33.1205 83.8975 32.8926C84.2523 32.6647 84.6689 32.5508 85.1475 32.5508ZM85.1377 33.2149C84.7048 33.2149 84.3597 33.3565 84.1025 33.6397C83.8454 33.9229 83.6924 34.3184 83.6436 34.8262H86.4756C86.4723 34.5072 86.4219 34.2272 86.3242 33.9863C86.2298 33.7422 86.085 33.5534 85.8896 33.4199C85.6943 33.2832 85.4437 33.2149 85.1377 33.2149ZM91.2363 32.5508C91.8711 32.5508 92.3512 32.707 92.6768 33.0195C93.0023 33.3288 93.165 33.8268 93.165 34.5137V38H92.3643V34.5674C92.3643 34.1214 92.2617 33.7878 92.0566 33.5664C91.8548 33.3451 91.5439 33.2344 91.124 33.2344C90.5316 33.2344 90.1149 33.402 89.874 33.7373C89.6331 34.0726 89.5127 34.5593 89.5127 35.1973V38H88.7021V32.6484H89.3564L89.4785 33.4199H89.5225C89.6364 33.2311 89.7812 33.0732 89.957 32.9463C90.1328 32.8161 90.3298 32.7184 90.5479 32.6533C90.766 32.585 90.9954 32.5508 91.2363 32.5508ZM101.749 38H97.0713V37.3213L98.9805 35.3828C99.3353 35.0247 99.6331 34.7057 99.874 34.4258C100.118 34.1458 100.304 33.8708 100.431 33.6006C100.558 33.3272 100.621 33.0277 100.621 32.7022C100.621 32.2985 100.501 31.9909 100.26 31.7793C100.022 31.5645 99.708 31.457 99.3174 31.457C98.9756 31.457 98.6729 31.5156 98.4092 31.6328C98.1455 31.75 97.8753 31.916 97.5986 32.1309L97.1641 31.584C97.3529 31.4245 97.5579 31.2829 97.7793 31.1592C98.0039 31.0355 98.2432 30.9378 98.4971 30.8662C98.7542 30.7946 99.0277 30.7588 99.3174 30.7588C99.7568 30.7588 100.136 30.8353 100.455 30.9883C100.774 31.1413 101.02 31.3594 101.192 31.6426C101.368 31.9258 101.456 32.2627 101.456 32.6533C101.456 33.0309 101.381 33.3825 101.231 33.708C101.082 34.0303 100.872 34.3509 100.602 34.6699C100.331 34.9857 100.016 35.321 99.6543 35.6758L98.1016 37.2236V37.2578H101.749V38ZM107.511 34.4209C107.511 35.0003 107.467 35.5179 107.379 35.9736C107.291 36.4294 107.153 36.8151 106.964 37.1309C106.775 37.4466 106.531 37.6875 106.231 37.8535C105.932 38.0163 105.572 38.0977 105.152 38.0977C104.622 38.0977 104.182 37.9528 103.834 37.6631C103.489 37.3734 103.23 36.9551 103.058 36.4082C102.888 35.8581 102.804 35.1956 102.804 34.4209C102.804 33.6592 102.88 33.0049 103.033 32.458C103.189 31.9079 103.44 31.4863 103.785 31.1934C104.13 30.8971 104.586 30.749 105.152 30.749C105.689 30.749 106.132 30.8955 106.48 31.1885C106.829 31.4782 107.088 31.8981 107.257 32.4482C107.426 32.9951 107.511 33.6527 107.511 34.4209ZM103.619 34.4209C103.619 35.085 103.67 35.6384 103.771 36.0811C103.871 36.5238 104.034 36.8558 104.259 37.0772C104.487 37.2953 104.785 37.4043 105.152 37.4043C105.52 37.4043 105.816 37.2953 106.041 37.0772C106.269 36.8591 106.433 36.5287 106.534 36.0859C106.638 35.6432 106.69 35.0882 106.69 34.4209C106.69 33.7666 106.64 33.2197 106.539 32.7803C106.438 32.3376 106.275 32.0055 106.051 31.7842C105.826 31.5596 105.527 31.4473 105.152 31.4473C104.778 31.4473 104.479 31.5596 104.254 31.7842C104.029 32.0055 103.867 32.3376 103.766 32.7803C103.668 33.2197 103.619 33.7666 103.619 34.4209ZM113.194 38H108.517V37.3213L110.426 35.3828C110.781 35.0247 111.078 34.7057 111.319 34.4258C111.563 34.1458 111.749 33.8708 111.876 33.6006C112.003 33.3272 112.066 33.0277 112.066 32.7022C112.066 32.2985 111.946 31.9909 111.705 31.7793C111.467 31.5645 111.153 31.457 110.763 31.457C110.421 31.457 110.118 31.5156 109.854 31.6328C109.591 31.75 109.321 31.916 109.044 32.1309L108.609 31.584C108.798 31.4245 109.003 31.2829 109.225 31.1592C109.449 31.0355 109.688 30.9378 109.942 30.8662C110.2 30.7946 110.473 30.7588 110.763 30.7588C111.202 30.7588 111.581 30.8353 111.9 30.9883C112.219 31.1413 112.465 31.3594 112.638 31.6426C112.813 31.9258 112.901 32.2627 112.901 32.6533C112.901 33.0309 112.826 33.3825 112.677 33.708C112.527 34.0303 112.317 34.3509 112.047 34.6699C111.777 34.9857 111.461 35.321 111.1 35.6758L109.547 37.2236V37.2578H113.194V38ZM117.257 38H116.466V32.9414C116.466 32.7494 116.466 32.585 116.466 32.4482C116.469 32.3083 116.472 32.1813 116.476 32.0674C116.482 31.9502 116.49 31.8314 116.5 31.7109C116.399 31.8151 116.305 31.9046 116.217 31.9795C116.129 32.0511 116.02 32.1406 115.89 32.2481L115.074 32.9024L114.649 32.3506L116.583 30.8613H117.257V38Z" fill="#1E323C"/>
<rect x="115" y="29" width="5" height="9" fill="#FAFAFA"/>
<path d="M114.753 38V37.3608L117.153 34.733C117.435 34.4252 117.667 34.1577 117.849 33.9304C118.032 33.7008 118.167 33.4853 118.254 33.2841C118.344 33.0805 118.389 32.8674 118.389 32.6449C118.389 32.3892 118.328 32.1679 118.205 31.9808C118.084 31.7938 117.918 31.6494 117.707 31.5476C117.497 31.4458 117.26 31.3949 116.997 31.3949C116.718 31.3949 116.474 31.4529 116.266 31.5689C116.06 31.6825 115.9 31.8423 115.786 32.0483C115.675 32.2543 115.619 32.4957 115.619 32.7727H114.781C114.781 32.3466 114.879 31.9725 115.076 31.6506C115.272 31.3286 115.54 31.0777 115.879 30.8977C116.219 30.7178 116.602 30.6278 117.026 30.6278C117.452 30.6278 117.829 30.7178 118.158 30.8977C118.487 31.0777 118.746 31.3203 118.933 31.6257C119.12 31.9311 119.213 32.2708 119.213 32.6449C119.213 32.9124 119.165 33.174 119.067 33.4297C118.973 33.683 118.807 33.9659 118.57 34.2784C118.336 34.5885 118.01 34.9673 117.594 35.4148L115.96 37.1619V37.2188H119.341V38H114.753Z" fill="#333333"/>
</g>
<defs>
<clipPath id="clip0_1_2">
<rect width="129" height="45" fill="white"/>
</clipPath>
</defs>
</svg>
