<svg width="129" height="45" viewBox="0 0 129 45" fill="none" xmlns="http://www.w3.org/2000/svg">
<rect width="129" height="45" rx="22.5" fill="#FAFAFA"/>
<circle cx="20.5" cy="22.5" r="19" fill="#2D5BE3" stroke="#FFE500" stroke-width="3"/>
<path d="M50.9619 14V6.86133H51.8799L55.2295 12.8135H55.2637C55.2572 12.6442 55.2474 12.4473 55.2344 12.2227C55.2246 11.998 55.2165 11.7751 55.21 11.5537C55.2035 11.3291 55.2002 11.1354 55.2002 10.9727V6.86133H55.9375V14H55.0391L51.6553 8.02832H51.6162C51.626 8.2041 51.6357 8.40592 51.6455 8.63379C51.6585 8.86165 51.6683 9.08952 51.6748 9.31738C51.6846 9.54199 51.6895 9.74382 51.6895 9.92285V14H50.9619ZM56.9238 14V13.3604H59.4531V14H56.9238ZM58.1836 12.6621C57.8971 12.6621 57.6432 12.597 57.4219 12.4668C57.2005 12.3366 57.0264 12.1462 56.8994 11.8955C56.7757 11.6416 56.7139 11.3324 56.7139 10.9678C56.7139 10.4242 56.8473 10.0075 57.1143 9.71777C57.3812 9.42806 57.749 9.2832 58.2178 9.2832C58.5042 9.2832 58.7581 9.34831 58.9795 9.47852C59.2008 9.60872 59.375 9.79915 59.502 10.0498C59.6289 10.2972 59.6924 10.6032 59.6924 10.9678C59.6924 11.5146 59.5573 11.9346 59.2871 12.2275C59.0169 12.5173 58.6491 12.6621 58.1836 12.6621ZM58.2031 12.1152C58.4993 12.1152 58.7158 12.0176 58.8525 11.8223C58.9893 11.627 59.0576 11.3421 59.0576 10.9678C59.0576 10.5902 58.9893 10.3086 58.8525 10.123C58.7191 9.9375 58.5026 9.84473 58.2031 9.84473C57.9069 9.84473 57.6888 9.9375 57.5488 10.123C57.4089 10.3086 57.3389 10.5902 57.3389 10.9678C57.3389 11.3421 57.4072 11.627 57.5439 11.8223C57.6839 12.0176 57.9036 12.1152 58.2031 12.1152ZM63.6963 14H62.9053V8.94141C62.9053 8.74935 62.9053 8.58496 62.9053 8.44824C62.9085 8.30827 62.9118 8.18132 62.915 8.06738C62.9215 7.9502 62.9297 7.83138 62.9395 7.71094C62.8385 7.8151 62.7441 7.90462 62.6562 7.97949C62.5684 8.05111 62.4593 8.14062 62.3291 8.24805L61.5137 8.90234L61.0889 8.35059L63.0225 6.86133H63.6963V14ZM71.4209 8.55078C71.8766 8.55078 72.2673 8.65169 72.5928 8.85352C72.9183 9.05534 73.1673 9.33854 73.3398 9.70312C73.5124 10.0645 73.5986 10.4876 73.5986 10.9727V11.4756H69.9023C69.9121 12.1038 70.0684 12.5824 70.3711 12.9111C70.6738 13.2399 71.1003 13.4043 71.6504 13.4043C71.9889 13.4043 72.2884 13.3734 72.5488 13.3115C72.8092 13.2497 73.0794 13.1585 73.3594 13.0381V13.751C73.0892 13.8714 72.8206 13.9593 72.5537 14.0146C72.29 14.07 71.9775 14.0977 71.6162 14.0977C71.1019 14.0977 70.6527 13.9935 70.2686 13.7852C69.8877 13.5736 69.5915 13.2643 69.3799 12.8574C69.1683 12.4505 69.0625 11.9525 69.0625 11.3633C69.0625 10.7871 69.1585 10.2891 69.3506 9.86914C69.5459 9.44596 69.8193 9.12044 70.1709 8.89258C70.5257 8.66471 70.9424 8.55078 71.4209 8.55078ZM71.4111 9.21484C70.9782 9.21484 70.6331 9.35645 70.376 9.63965C70.1188 9.92285 69.9658 10.3184 69.917 10.8262H72.749C72.7458 10.5072 72.6953 10.2272 72.5977 9.98633C72.5033 9.74219 72.3584 9.55339 72.1631 9.41992C71.9678 9.2832 71.7171 9.21484 71.4111 9.21484ZM77.5098 8.55078C78.1445 8.55078 78.6247 8.70703 78.9502 9.01953C79.2757 9.32878 79.4385 9.82682 79.4385 10.5137V14H78.6377V10.5674C78.6377 10.1214 78.5352 9.78776 78.3301 9.56641C78.1283 9.34505 77.8174 9.23438 77.3975 9.23438C76.805 9.23438 76.3883 9.40202 76.1475 9.7373C75.9066 10.0726 75.7861 10.5592 75.7861 11.1973V14H74.9756V8.64844H75.6299L75.752 9.41992H75.7959C75.9098 9.23112 76.0547 9.07324 76.2305 8.94629C76.4062 8.81608 76.6032 8.71842 76.8213 8.65332C77.0394 8.58496 77.2689 8.55078 77.5098 8.55078ZM54.3164 24.5352C54.3164 24.877 54.2301 25.165 54.0576 25.3994C53.8883 25.6305 53.6442 25.8047 53.3252 25.9219C53.0094 26.0391 52.6318 26.0977 52.1924 26.0977C51.818 26.0977 51.4941 26.0684 51.2207 26.0098C50.9473 25.9512 50.708 25.8682 50.5029 25.7607V25.0137C50.721 25.1211 50.9814 25.2188 51.2842 25.3066C51.5869 25.3945 51.8962 25.4385 52.2119 25.4385C52.6742 25.4385 53.0094 25.3636 53.2178 25.2139C53.4261 25.0641 53.5303 24.8607 53.5303 24.6035C53.5303 24.457 53.488 24.3285 53.4033 24.2178C53.3219 24.1038 53.1836 23.9948 52.9883 23.8906C52.793 23.7832 52.5228 23.666 52.1777 23.5391C51.8359 23.4089 51.5397 23.2803 51.2891 23.1533C51.0417 23.0231 50.8496 22.8652 50.7129 22.6797C50.5794 22.4941 50.5127 22.2533 50.5127 21.957C50.5127 21.5046 50.695 21.1579 51.0596 20.917C51.4274 20.6729 51.9092 20.5508 52.5049 20.5508C52.8271 20.5508 53.1283 20.5833 53.4082 20.6484C53.6914 20.7103 53.9551 20.7949 54.1992 20.9023L53.9258 21.5518C53.7044 21.4574 53.4684 21.3776 53.2178 21.3125C52.9671 21.2474 52.7116 21.2148 52.4512 21.2148C52.0768 21.2148 51.7887 21.2767 51.5869 21.4004C51.3883 21.5241 51.2891 21.6934 51.2891 21.9082C51.2891 22.0742 51.3346 22.2109 51.4258 22.3184C51.5202 22.4258 51.6699 22.5267 51.875 22.6211C52.0801 22.7155 52.3503 22.8262 52.6855 22.9531C53.0208 23.0768 53.3105 23.2054 53.5547 23.3389C53.7988 23.4691 53.986 23.6286 54.1162 23.8174C54.2497 24.0029 54.3164 24.2422 54.3164 24.5352ZM60.0391 20.6484V26H59.375L59.2578 25.248H59.2139C59.1032 25.4336 58.96 25.5898 58.7842 25.7168C58.6084 25.8438 58.4098 25.9382 58.1885 26C57.9704 26.0651 57.7376 26.0977 57.4902 26.0977C57.0671 26.0977 56.7122 26.0293 56.4258 25.8926C56.1393 25.7559 55.9229 25.5443 55.7764 25.2578C55.6331 24.9714 55.5615 24.6035 55.5615 24.1543V20.6484H56.3818V24.0957C56.3818 24.5417 56.4827 24.8753 56.6846 25.0967C56.8864 25.3148 57.194 25.4238 57.6074 25.4238C58.0046 25.4238 58.3203 25.349 58.5547 25.1992C58.7923 25.0495 58.9632 24.8298 59.0674 24.54C59.1715 24.2471 59.2236 23.889 59.2236 23.4658V20.6484H60.0391ZM64.2676 20.5508C64.9349 20.5508 65.4671 20.7803 65.8643 21.2393C66.2614 21.6982 66.46 22.3883 66.46 23.3096C66.46 23.9183 66.3688 24.4294 66.1865 24.8428C66.0042 25.2562 65.7471 25.5687 65.415 25.7803C65.0863 25.9919 64.6973 26.0977 64.248 26.0977C63.9648 26.0977 63.7158 26.0602 63.501 25.9854C63.2861 25.9105 63.1022 25.8096 62.9492 25.6826C62.7962 25.5557 62.6693 25.4173 62.5684 25.2676H62.5098C62.5195 25.3945 62.5309 25.5475 62.5439 25.7266C62.5602 25.9056 62.5684 26.0618 62.5684 26.1953V28.3926H61.7529V20.6484H62.4219L62.5293 21.4395H62.5684C62.6725 21.2767 62.7995 21.1286 62.9492 20.9951C63.099 20.8584 63.2812 20.751 63.4961 20.6729C63.7142 20.5915 63.9714 20.5508 64.2676 20.5508ZM64.126 21.2344C63.7549 21.2344 63.4554 21.306 63.2275 21.4492C63.0029 21.5924 62.8385 21.8073 62.7344 22.0938C62.6302 22.377 62.5749 22.7334 62.5684 23.1631V23.3193C62.5684 23.7718 62.6172 24.1543 62.7148 24.4668C62.8158 24.7793 62.9801 25.0169 63.208 25.1797C63.4391 25.3424 63.7484 25.4238 64.1357 25.4238C64.4678 25.4238 64.7445 25.3343 64.9658 25.1553C65.1872 24.9762 65.3516 24.7272 65.459 24.4082C65.5697 24.0859 65.625 23.7165 65.625 23.2998C65.625 22.6683 65.5013 22.167 65.2539 21.7959C65.0098 21.4215 64.6338 21.2344 64.126 21.2344ZM68.6914 26H67.876V18.4023H68.6914V26ZM72.4658 20.5508C72.9215 20.5508 73.3122 20.6517 73.6377 20.8535C73.9632 21.0553 74.2122 21.3385 74.3848 21.7031C74.5573 22.0645 74.6436 22.4876 74.6436 22.9727V23.4756H70.9473C70.957 24.1038 71.1133 24.5824 71.416 24.9111C71.7188 25.2399 72.1452 25.4043 72.6953 25.4043C73.0339 25.4043 73.3333 25.3734 73.5938 25.3115C73.8542 25.2497 74.1243 25.1585 74.4043 25.0381V25.751C74.1341 25.8714 73.8656 25.9593 73.5986 26.0146C73.335 26.07 73.0225 26.0977 72.6611 26.0977C72.1468 26.0977 71.6976 25.9935 71.3135 25.7852C70.9326 25.5736 70.6364 25.2643 70.4248 24.8574C70.2132 24.4505 70.1074 23.9525 70.1074 23.3633C70.1074 22.7871 70.2035 22.2891 70.3955 21.8691C70.5908 21.446 70.8643 21.1204 71.2158 20.8926C71.5706 20.6647 71.9873 20.5508 72.4658 20.5508ZM72.4561 21.2148C72.0231 21.2148 71.6781 21.3564 71.4209 21.6396C71.1637 21.9229 71.0107 22.3184 70.9619 22.8262H73.7939C73.7907 22.5072 73.7402 22.2272 73.6426 21.9863C73.5482 21.7422 73.4033 21.5534 73.208 21.4199C73.0127 21.2832 72.762 21.2148 72.4561 21.2148ZM81.8311 20.5508C82.4202 20.5508 82.8646 20.7054 83.1641 21.0146C83.4635 21.3206 83.6133 21.8138 83.6133 22.4941V26H82.8125V22.5332C82.8125 22.1003 82.7181 21.7764 82.5293 21.5615C82.3438 21.3434 82.0671 21.2344 81.6992 21.2344C81.1816 21.2344 80.8057 21.3841 80.5713 21.6836C80.3369 21.9831 80.2197 22.4242 80.2197 23.0068V26H79.4141V22.5332C79.4141 22.2435 79.3717 22.0026 79.2871 21.8105C79.2057 21.6185 79.082 21.4753 78.916 21.3809C78.7533 21.2832 78.5465 21.2344 78.2959 21.2344C77.9411 21.2344 77.6562 21.3076 77.4414 21.4541C77.2266 21.6006 77.0703 21.8187 76.9727 22.1084C76.8783 22.3949 76.8311 22.748 76.8311 23.168V26H76.0205V20.6484H76.6748L76.7969 21.4053H76.8408C76.9482 21.2197 77.0833 21.0635 77.2461 20.9365C77.4089 20.8096 77.5911 20.7135 77.793 20.6484C77.9948 20.5833 78.2096 20.5508 78.4375 20.5508C78.8444 20.5508 79.1846 20.6273 79.458 20.7803C79.7347 20.93 79.9349 21.1595 80.0586 21.4688H80.1025C80.2783 21.1595 80.5192 20.93 80.8252 20.7803C81.1312 20.6273 81.4665 20.5508 81.8311 20.5508ZM87.3389 20.5508C87.7946 20.5508 88.1852 20.6517 88.5107 20.8535C88.8363 21.0553 89.0853 21.3385 89.2578 21.7031C89.4303 22.0645 89.5166 22.4876 89.5166 22.9727V23.4756H85.8203C85.8301 24.1038 85.9863 24.5824 86.2891 24.9111C86.5918 25.2399 87.0182 25.4043 87.5684 25.4043C87.9069 25.4043 88.2064 25.3734 88.4668 25.3115C88.7272 25.2497 88.9974 25.1585 89.2773 25.0381V25.751C89.0072 25.8714 88.7386 25.9593 88.4717 26.0146C88.208 26.07 87.8955 26.0977 87.5342 26.0977C87.0199 26.0977 86.5706 25.9935 86.1865 25.7852C85.8057 25.5736 85.5094 25.2643 85.2979 24.8574C85.0863 24.4505 84.9805 23.9525 84.9805 23.3633C84.9805 22.7871 85.0765 22.2891 85.2686 21.8691C85.4639 21.446 85.7373 21.1204 86.0889 20.8926C86.4437 20.6647 86.8604 20.5508 87.3389 20.5508ZM87.3291 21.2148C86.8962 21.2148 86.5511 21.3564 86.2939 21.6396C86.0368 21.9229 85.8838 22.3184 85.835 22.8262H88.667C88.6637 22.5072 88.6133 22.2272 88.5156 21.9863C88.4212 21.7422 88.2764 21.5534 88.0811 21.4199C87.8857 21.2832 87.6351 21.2148 87.3291 21.2148ZM93.4277 20.5508C94.0625 20.5508 94.5426 20.707 94.8682 21.0195C95.1937 21.3288 95.3564 21.8268 95.3564 22.5137V26H94.5557V22.5674C94.5557 22.1214 94.4531 21.7878 94.248 21.5664C94.0462 21.3451 93.7354 21.2344 93.3154 21.2344C92.723 21.2344 92.3063 21.402 92.0654 21.7373C91.8245 22.0726 91.7041 22.5592 91.7041 23.1973V26H90.8936V20.6484H91.5479L91.6699 21.4199H91.7139C91.8278 21.2311 91.9727 21.0732 92.1484 20.9463C92.3242 20.8161 92.5212 20.7184 92.7393 20.6533C92.9574 20.585 93.1868 20.5508 93.4277 20.5508ZM98.7549 25.4336C98.8883 25.4336 99.0251 25.4222 99.165 25.3994C99.305 25.3766 99.4189 25.349 99.5068 25.3164V25.9463C99.4124 25.9886 99.2806 26.0244 99.1113 26.0537C98.9453 26.083 98.7826 26.0977 98.623 26.0977C98.3398 26.0977 98.0827 26.0488 97.8516 25.9512C97.6204 25.8503 97.4349 25.681 97.2949 25.4434C97.1582 25.2057 97.0898 24.877 97.0898 24.457V21.2832H96.3281V20.8877L97.0947 20.5703L97.417 19.4082H97.9053V20.6484H99.4727V21.2832H97.9053V24.4326C97.9053 24.7679 97.9818 25.0186 98.1348 25.1846C98.291 25.3506 98.4977 25.4336 98.7549 25.4336ZM105.205 23.3145C105.205 23.7539 105.148 24.1462 105.034 24.4912C104.92 24.8363 104.756 25.1276 104.541 25.3652C104.326 25.6029 104.066 25.7852 103.76 25.9121C103.457 26.0358 103.114 26.0977 102.729 26.0977C102.371 26.0977 102.043 26.0358 101.743 25.9121C101.447 25.7852 101.19 25.6029 100.972 25.3652C100.757 25.1276 100.589 24.8363 100.469 24.4912C100.352 24.1462 100.293 23.7539 100.293 23.3145C100.293 22.7285 100.392 22.2305 100.591 21.8203C100.789 21.4069 101.073 21.0928 101.44 20.8779C101.812 20.6598 102.253 20.5508 102.764 20.5508C103.252 20.5508 103.678 20.6598 104.043 20.8779C104.411 21.096 104.696 21.4118 104.897 21.8252C105.103 22.2354 105.205 22.7318 105.205 23.3145ZM101.133 23.3145C101.133 23.7441 101.19 24.1169 101.304 24.4326C101.418 24.7484 101.593 24.9925 101.831 25.165C102.069 25.3376 102.375 25.4238 102.749 25.4238C103.12 25.4238 103.424 25.3376 103.662 25.165C103.903 24.9925 104.08 24.7484 104.194 24.4326C104.308 24.1169 104.365 23.7441 104.365 23.3145C104.365 22.888 104.308 22.5202 104.194 22.2109C104.08 21.8984 103.905 21.6576 103.667 21.4883C103.429 21.319 103.122 21.2344 102.744 21.2344C102.188 21.2344 101.779 21.4183 101.519 21.7861C101.261 22.154 101.133 22.6634 101.133 23.3145ZM52.7588 38.0977C52.0817 38.0977 51.5446 37.8665 51.1475 37.4043C50.7536 36.9421 50.5566 36.2552 50.5566 35.3438C50.5566 34.4225 50.7585 33.7275 51.1621 33.2588C51.5658 32.7868 52.1029 32.5508 52.7734 32.5508C53.0566 32.5508 53.304 32.5882 53.5156 32.6631C53.7272 32.738 53.9095 32.8389 54.0625 32.9658C54.2155 33.0895 54.3441 33.2311 54.4482 33.3906H54.5068C54.4938 33.2897 54.4808 33.1514 54.4678 32.9756C54.4548 32.7998 54.4482 32.6566 54.4482 32.5459V30.4023H55.2588V38H54.6045L54.4824 37.2383H54.4482C54.3473 37.3978 54.2188 37.5426 54.0625 37.6729C53.9095 37.8031 53.7256 37.9072 53.5107 37.9854C53.2992 38.0602 53.0485 38.0977 52.7588 38.0977ZM52.8857 37.4238C53.4587 37.4238 53.8639 37.2611 54.1016 36.9355C54.3392 36.61 54.458 36.1266 54.458 35.4854V35.3389C54.458 34.6585 54.3441 34.1361 54.1162 33.7715C53.8916 33.4069 53.4814 33.2246 52.8857 33.2246C52.3877 33.2246 52.015 33.4167 51.7676 33.8008C51.5202 34.1816 51.3965 34.7025 51.3965 35.3633C51.3965 36.0208 51.5186 36.5286 51.7627 36.8867C52.0101 37.2448 52.3844 37.4238 52.8857 37.4238ZM59.0381 32.5508C59.4938 32.5508 59.8844 32.6517 60.21 32.8535C60.5355 33.0553 60.7845 33.3385 60.957 33.7031C61.1296 34.0645 61.2158 34.4876 61.2158 34.9727V35.4756H57.5195C57.5293 36.1038 57.6855 36.5824 57.9883 36.9111C58.291 37.2399 58.7174 37.4043 59.2676 37.4043C59.6061 37.4043 59.9056 37.3734 60.166 37.3115C60.4264 37.2497 60.6966 37.1585 60.9766 37.0381V37.751C60.7064 37.8714 60.4378 37.9593 60.1709 38.0146C59.9072 38.07 59.5947 38.0977 59.2334 38.0977C58.7191 38.0977 58.2699 37.9935 57.8857 37.7852C57.5049 37.5736 57.2087 37.2643 56.9971 36.8574C56.7855 36.4505 56.6797 35.9525 56.6797 35.3633C56.6797 34.7871 56.7757 34.2891 56.9678 33.8691C57.1631 33.446 57.4365 33.1204 57.7881 32.8926C58.1429 32.6647 58.5596 32.5508 59.0381 32.5508ZM59.0283 33.2148C58.5954 33.2148 58.2503 33.3564 57.9932 33.6396C57.736 33.9229 57.583 34.3184 57.5342 34.8262H60.3662C60.363 34.5072 60.3125 34.2272 60.2148 33.9863C60.1204 33.7422 59.9756 33.5534 59.7803 33.4199C59.585 33.2832 59.3343 33.2148 59.0283 33.2148ZM68.6523 36.5352C68.6523 36.877 68.5661 37.165 68.3936 37.3994C68.2243 37.6305 67.9801 37.8047 67.6611 37.9219C67.3454 38.0391 66.9678 38.0977 66.5283 38.0977C66.154 38.0977 65.8301 38.0684 65.5566 38.0098C65.2832 37.9512 65.0439 37.8682 64.8389 37.7607V37.0137C65.057 37.1211 65.3174 37.2188 65.6201 37.3066C65.9229 37.3945 66.2321 37.4385 66.5479 37.4385C67.0101 37.4385 67.3454 37.3636 67.5537 37.2139C67.762 37.0641 67.8662 36.8607 67.8662 36.6035C67.8662 36.457 67.8239 36.3285 67.7393 36.2178C67.6579 36.1038 67.5195 35.9948 67.3242 35.8906C67.1289 35.7832 66.8587 35.666 66.5137 35.5391C66.1719 35.4089 65.8757 35.2803 65.625 35.1533C65.3776 35.0231 65.1855 34.8652 65.0488 34.6797C64.9154 34.4941 64.8486 34.2533 64.8486 33.957C64.8486 33.5046 65.0309 33.1579 65.3955 32.917C65.7633 32.6729 66.2451 32.5508 66.8408 32.5508C67.1631 32.5508 67.4642 32.5833 67.7441 32.6484C68.0273 32.7103 68.291 32.7949 68.5352 32.9023L68.2617 33.5518C68.0404 33.4574 67.8044 33.3776 67.5537 33.3125C67.3031 33.2474 67.0475 33.2148 66.7871 33.2148C66.4128 33.2148 66.1247 33.2767 65.9229 33.4004C65.7243 33.5241 65.625 33.6934 65.625 33.9082C65.625 34.0742 65.6706 34.2109 65.7617 34.3184C65.8561 34.4258 66.0059 34.5267 66.2109 34.6211C66.416 34.7155 66.6862 34.8262 67.0215 34.9531C67.3568 35.0768 67.6465 35.2054 67.8906 35.3389C68.1348 35.4691 68.3219 35.6286 68.4521 35.8174C68.5856 36.0029 68.6523 36.2422 68.6523 36.5352ZM71.958 32.5605C72.596 32.5605 73.0697 32.7038 73.3789 32.9902C73.6882 33.2767 73.8428 33.734 73.8428 34.3623V38H73.252L73.0957 37.209H73.0566C72.9069 37.4043 72.7507 37.5687 72.5879 37.7021C72.4251 37.8324 72.2363 37.9316 72.0215 38C71.8099 38.0651 71.5495 38.0977 71.2402 38.0977C70.9147 38.0977 70.625 38.0407 70.3711 37.9268C70.1204 37.8128 69.9219 37.6403 69.7754 37.4092C69.6322 37.1781 69.5605 36.8851 69.5605 36.5303C69.5605 35.9964 69.7721 35.5863 70.1953 35.2998C70.6185 35.0133 71.263 34.8571 72.1289 34.8311L73.0518 34.792V34.4648C73.0518 34.0026 72.9525 33.6787 72.7539 33.4932C72.5553 33.3076 72.2754 33.2148 71.9141 33.2148C71.6341 33.2148 71.3672 33.2555 71.1133 33.3369C70.8594 33.4183 70.6185 33.5143 70.3906 33.625L70.1416 33.0098C70.3825 32.8861 70.6592 32.7803 70.9717 32.6924C71.2842 32.6045 71.613 32.5605 71.958 32.5605ZM73.042 35.3633L72.2266 35.3975C71.5592 35.4235 71.0889 35.5326 70.8154 35.7246C70.542 35.9167 70.4053 36.1885 70.4053 36.54C70.4053 36.846 70.498 37.0723 70.6836 37.2188C70.8691 37.3652 71.1149 37.4385 71.4209 37.4385C71.8962 37.4385 72.2852 37.3066 72.5879 37.043C72.8906 36.7793 73.042 36.3838 73.042 35.8564V35.3633ZM76.3281 38H75.5127V30.4023H76.3281V38ZM82.4609 32.6484V38H81.7969L81.6797 37.248H81.6357C81.5251 37.4336 81.3818 37.5898 81.2061 37.7168C81.0303 37.8438 80.8317 37.9382 80.6104 38C80.3923 38.0651 80.1595 38.0977 79.9121 38.0977C79.4889 38.0977 79.1341 38.0293 78.8477 37.8926C78.5612 37.7559 78.3447 37.5443 78.1982 37.2578C78.055 36.9714 77.9834 36.6035 77.9834 36.1543V32.6484H78.8037V36.0957C78.8037 36.5417 78.9046 36.8753 79.1064 37.0967C79.3083 37.3148 79.6159 37.4238 80.0293 37.4238C80.4264 37.4238 80.7422 37.349 80.9766 37.1992C81.2142 37.0495 81.3851 36.8298 81.4893 36.54C81.5934 36.2471 81.6455 35.889 81.6455 35.4658V32.6484H82.4609ZM86.0791 38.0977C85.402 38.0977 84.8649 37.8665 84.4678 37.4043C84.0739 36.9421 83.877 36.2552 83.877 35.3438C83.877 34.4225 84.0788 33.7275 84.4824 33.2588C84.8861 32.7868 85.4232 32.5508 86.0938 32.5508C86.377 32.5508 86.6243 32.5882 86.8359 32.6631C87.0475 32.738 87.2298 32.8389 87.3828 32.9658C87.5358 33.0895 87.6644 33.2311 87.7686 33.3906H87.8271C87.8141 33.2897 87.8011 33.1514 87.7881 32.9756C87.7751 32.7998 87.7686 32.6566 87.7686 32.5459V30.4023H88.5791V38H87.9248L87.8027 37.2383H87.7686C87.6676 37.3978 87.5391 37.5426 87.3828 37.6729C87.2298 37.8031 87.0459 37.9072 86.8311 37.9854C86.6195 38.0602 86.3688 38.0977 86.0791 38.0977ZM86.2061 37.4238C86.779 37.4238 87.1842 37.2611 87.4219 36.9355C87.6595 36.61 87.7783 36.1266 87.7783 35.4854V35.3389C87.7783 34.6585 87.6644 34.1361 87.4365 33.7715C87.2119 33.4069 86.8018 33.2246 86.2061 33.2246C85.708 33.2246 85.3353 33.4167 85.0879 33.8008C84.8405 34.1816 84.7168 34.7025 84.7168 35.3633C84.7168 36.0208 84.8389 36.5286 85.083 36.8867C85.3304 37.2448 85.7048 37.4238 86.2061 37.4238Z" fill="#1E323C"/>
<path d="M31.4016 14.5378C30.8585 13.846 30.0083 13.4559 29.1207 13.4559H28.1238C28.1369 13.1744 28.1476 13.0014 28.1542 12.7682C28.1668 12.3478 27.8241 12 27.3973 12H13.6103C13.183 12 12.8408 12.3478 12.8529 12.7682C12.8599 13.001 12.8702 13.1739 12.8833 13.4559H11.886C10.9984 13.4559 10.1486 13.846 9.60555 14.5378C9.063 15.2297 8.87297 16.0945 9.08448 16.9427L9.11389 17.0494C10.0683 20.7073 12.8006 23.3546 15.611 23.3546H15.6115C15.7712 23.3546 15.8272 23.3445 15.9855 23.3275C16.7372 24.2935 17.665 25.0198 18.4041 25.4444V26.5875C18.4041 26.8925 18.6548 27.1395 18.9644 27.1395H19.2908V29.6143H18.9644C18.6548 29.6143 18.4041 29.8613 18.4041 30.1663V31.6521H17.806C17.4964 31.6521 17.2457 31.8991 17.2457 32.2041V33.2534H16.2824C15.9743 33.2534 15.7221 33.5018 15.7221 33.8054V35H24.8891V33.8054C24.8891 33.5004 24.6383 33.2534 24.3288 33.2534H23.3809V32.2041C23.3809 31.8991 23.1302 31.6521 22.8206 31.6521H22.2463V30.1663C22.2463 29.8613 21.9956 29.6143 21.686 29.6143H21.3596V27.1395H21.686C21.9956 27.1395 22.2463 26.8925 22.2463 26.5875V25.4444C23.2805 25.0198 24.092 24.294 24.8442 23.328C25.0025 23.345 25.2 23.3556 25.3597 23.3556C28.1701 23.3556 30.9216 20.7004 31.8755 17.043C31.8858 17.0043 31.9049 16.9818 31.9147 16.9432C32.1248 16.0945 31.9441 15.2292 31.4016 14.5378ZM10.3372 16.7325L10.3111 16.6294C10.1911 16.1483 10.3013 15.6184 10.6127 15.2269C10.9269 14.8322 11.3994 14.576 11.9084 14.576H12.9855C13.2993 17.52 14.1117 20.1043 15.2547 22.0602C13.1648 21.8293 11.0936 19.6332 10.3372 16.7325ZM30.6965 16.6299C30.6881 16.6635 30.6797 16.6971 30.6704 16.7316C29.9135 19.6332 27.8428 21.8293 25.7524 22.0602C26.8954 20.1043 27.7078 17.52 28.0216 14.576H29.0987C29.6082 14.576 30.0802 14.8322 30.3949 15.2269C30.7068 15.6184 30.8165 16.1487 30.6965 16.6299Z" fill="#FFE600"/>
<path d="M20.5 15L21.2858 17.4184H23.8287L21.7714 18.9131L22.5572 21.3316L20.5 19.8369L18.4428 21.3316L19.2286 18.9131L17.1713 17.4184H19.7142L20.5 15Z" fill="#2D5BE3"/>
</svg>
